<svg width="46" height="43" viewBox="0 0 46 43" fill="none" xmlns="http://www.w3.org/2000/svg">
<g clip-path="url(#clip0_58_940)">
<path d="M40.25 20.6042C40.25 30.0104 32.1041 37.625 22.0416 37.625C11.9791 37.625 3.83331 30.0104 3.83331 20.6042C3.83331 11.1979 11.9791 3.58334 22.0416 3.58334M42.1666 39.4167L38.3333 35.8333" stroke="#18A0FB" stroke-width="1.5" stroke-linecap="round" stroke-linejoin="round"/>
<path d="M27.7917 10.9829C27.1209 9.01209 27.9067 6.5575 30.13 5.89459C31.2992 5.53625 32.7367 5.84084 33.5609 6.89792C34.3275 5.805 35.8225 5.55417 36.9725 5.89459C39.1959 6.5575 39.9817 9.01209 39.3109 10.9829C38.2567 14.1183 34.5767 15.7488 33.5609 15.7488C32.5259 15.7488 28.8842 14.1542 27.7917 10.9829V10.9829Z" stroke="#18A0FB" stroke-width="1.5" stroke-linecap="round" stroke-linejoin="round"/>
<path d="M27.105 24.445C26.6379 21.6504 23.9542 19.3783 21.12 19.3783C18.0404 19.3783 15.3329 21.8721 15.0717 24.9438C14.9688 26.1313 15.3487 27.2554 16.1325 28.1025C16.9083 28.9496 18.0008 29.4167 19.1883 29.4167H22.8933C24.2313 29.4167 25.4029 28.8942 26.2025 27.9521C27.0021 27.01 27.3188 25.7592 27.105 24.445ZM20.1383 18.2225C20.7535 18.2225 21.3435 17.9781 21.7785 17.5431C22.2135 17.1081 22.4579 16.5181 22.4579 15.9029C22.4579 15.2877 22.2135 14.6977 21.7785 14.2627C21.3435 13.8277 20.7535 13.5833 20.1383 13.5833C19.5231 13.5833 18.9331 13.8277 18.4981 14.2627C18.0631 14.6977 17.8187 15.2877 17.8187 15.9029C17.8187 16.5181 18.0631 17.1081 18.4981 17.5431C18.9331 17.9781 19.5231 18.2225 20.1383 18.2225ZM25.4108 19.1472C25.9231 19.1472 26.4145 18.9437 26.7767 18.5814C27.139 18.2191 27.3425 17.7278 27.3425 17.2155C27.3425 16.7032 27.139 16.2119 26.7767 15.8496C26.4145 15.4874 25.9231 15.2838 25.4108 15.2838C24.8985 15.2838 24.4072 15.4874 24.0449 15.8496C23.6827 16.2119 23.4792 16.7032 23.4792 17.2155C23.4792 17.7278 23.6827 18.2191 24.0449 18.5814C24.4072 18.9437 24.8985 19.1472 25.4108 19.1472ZM28.2688 22.2371C28.4715 22.2371 28.6722 22.1971 28.8595 22.1195C29.0468 22.042 29.217 21.9282 29.3603 21.7849C29.5037 21.6415 29.6174 21.4714 29.695 21.2841C29.7726 21.0968 29.8125 20.896 29.8125 20.6933C29.8125 20.4906 29.7726 20.2898 29.695 20.1025C29.6174 19.9152 29.5037 19.7451 29.3603 19.6017C29.217 19.4584 29.0468 19.3446 28.8595 19.2671C28.6722 19.1895 28.4715 19.1496 28.2688 19.1496C27.8593 19.1496 27.4667 19.3122 27.1772 19.6017C26.8876 19.8912 26.725 20.2839 26.725 20.6933C26.725 21.1027 26.8876 21.4954 27.1772 21.7849C27.4667 22.0744 27.8593 22.2371 28.2688 22.2371ZM15.1192 20.6941C15.3728 20.6941 15.624 20.6441 15.8584 20.5471C16.0927 20.45 16.3057 20.3077 16.4851 20.1283C16.6644 19.9489 16.8067 19.736 16.9038 19.5016C17.0009 19.2673 17.0508 19.0161 17.0508 18.7624C17.0508 18.5088 17.0009 18.2576 16.9038 18.0232C16.8067 17.7888 16.6644 17.5759 16.4851 17.3965C16.3057 17.2172 16.0927 17.0749 15.8584 16.9778C15.624 16.8807 15.3728 16.8308 15.1192 16.8308C14.6069 16.8308 14.1155 17.0343 13.7533 17.3965C13.391 17.7588 13.1875 18.2501 13.1875 18.7624C13.1875 19.2747 13.391 19.7661 13.7533 20.1283C14.1155 20.4906 14.6069 20.6941 15.1192 20.6941Z" fill="#18A0FB"/>
<path d="M22.5625 38.375C24.9017 38.375 27.2179 37.9143 29.379 37.0191C31.5402 36.1239 33.5038 34.8119 35.1578 33.1578C36.8119 31.5038 38.1239 29.5402 39.0191 27.379C39.9143 25.2179 40.375 22.9017 40.375 20.5625C40.375 18.2233 39.9143 15.9071 39.0191 13.746C38.1239 11.5848 36.8119 9.6212 35.1578 7.96716C33.5038 6.31312 31.5402 5.00106 29.379 4.1059C27.2179 3.21073 24.9017 2.75 22.5625 2.75C17.8383 2.75 13.3077 4.62667 9.96716 7.96716C6.62667 11.3077 4.75 15.8383 4.75 20.5625C4.75 25.2867 6.62667 29.8173 9.96716 33.1578C13.3077 36.4983 17.8383 38.375 22.5625 38.375ZM40.9375 40.2481C40.6 40.2481 40.2625 40.1169 40.0187 39.8731L36.5313 36.3856C36.2878 36.138 36.1514 35.8047 36.1514 35.4575C36.1514 35.1103 36.2878 34.777 36.5313 34.5294C37.0375 34.0231 37.8625 34.0231 38.3875 34.5294L41.875 38.0169C42.3812 38.5231 42.3812 39.3481 41.875 39.8731C41.6125 40.1169 41.275 40.2481 40.9375 40.2481Z" fill="transparent"/>
<path d="M35.905 5.68024C34.9246 5.68024 34.0471 6.1569 33.5 6.88815C33.2206 6.51376 32.8577 6.20966 32.4402 5.99998C32.0228 5.7903 31.5622 5.68082 31.095 5.68024C29.4321 5.68024 28.0833 7.0344 28.0833 8.70815C28.0833 9.35274 28.1862 9.94857 28.365 10.5011C29.2208 13.2094 31.8587 14.829 33.1641 15.2732C33.3483 15.3382 33.6516 15.3382 33.8358 15.2732C35.1412 14.829 37.7791 13.2094 38.635 10.5011C38.8137 9.94857 38.9166 9.35274 38.9166 8.70815C38.9166 7.0344 37.5679 5.68024 35.905 5.68024Z" fill="#18A0FB"/>
</g>
<defs>
<clipPath id="clip0_58_940">
<rect width="46" height="43" fill="#18A0FB"/>
</clipPath>
</defs>
</svg>
