<svg width="40" height="38" viewBox="0 0 40 38" fill="none" xmlns="http://www.w3.org/2000/svg">
<path d="M4.5 17.5C3.23333 17.5 2.16667 17.0667 1.3 16.2C0.433334 15.3333 0 14.2667 0 13C0 11.7333 0.433334 10.6667 1.3 9.8C2.16667 8.93333 3.23333 8.5 4.5 8.5C5.76667 8.5 6.83333 8.93333 7.7 9.8C8.56667 10.6667 9 11.7333 9 13C9 14.2667 8.56667 15.3333 7.7 16.2C6.83333 17.0667 5.76667 17.5 4.5 17.5ZM13.75 9C12.4833 9 11.4167 8.56667 10.55 7.7C9.68333 6.83333 9.25 5.76667 9.25 4.5C9.25 3.23333 9.68333 2.16667 10.55 1.3C11.4167 0.433334 12.4833 0 13.75 0C15.0167 0 16.0833 0.433334 16.95 1.3C17.8167 2.16667 18.25 3.23333 18.25 4.5C18.25 5.76667 17.8167 6.83333 16.95 7.7C16.0833 8.56667 15.0167 9 13.75 9ZM26.25 9C24.9833 9 23.9167 8.56667 23.05 7.7C22.1833 6.83333 21.75 5.76667 21.75 4.5C21.75 3.23333 22.1833 2.16667 23.05 1.3C23.9167 0.433334 24.9833 0 26.25 0C27.5167 0 28.5833 0.433334 29.45 1.3C30.3167 2.16667 30.75 3.23333 30.75 4.5C30.75 5.76667 30.3167 6.83333 29.45 7.7C28.5833 8.56667 27.5167 9 26.25 9ZM35.5 17.5C34.2333 17.5 33.1667 17.0667 32.3 16.2C31.4333 15.3333 31 14.2667 31 13C31 11.7333 31.4333 10.6667 32.3 9.8C33.1667 8.93333 34.2333 8.5 35.5 8.5C36.7667 8.5 37.8333 8.93333 38.7 9.8C39.5667 10.6667 40 11.7333 40 13C40 14.2667 39.5667 15.3333 38.7 16.2C37.8333 17.0667 36.7667 17.5 35.5 17.5ZM9.3 38C7.9 38 6.75 37.475 5.85 36.425C4.95 35.375 4.5 34.1333 4.5 32.7C4.5 31.3 4.925 30.0583 5.775 28.975C6.625 27.8917 7.53333 26.85 8.5 25.85C9.23333 25.1167 9.91667 24.3417 10.55 23.525C11.1833 22.7083 11.7833 21.8667 12.35 21C13.3167 19.5333 14.4 18.1667 15.6 16.9C16.8 15.6333 18.2667 15 20 15C21.7333 15 23.2083 15.6333 24.425 16.9C25.6417 18.1667 26.7333 19.55 27.7 21.05C28.2667 21.9167 28.8583 22.75 29.475 23.55C30.0917 24.35 30.7667 25.1167 31.5 25.85C32.4667 26.85 33.375 27.8917 34.225 28.975C35.075 30.0583 35.5 31.3 35.5 32.7C35.5 34.1333 35.05 35.375 34.15 36.425C33.25 37.475 32.1 38 30.7 38C28.9 38 27.1167 37.85 25.35 37.55C23.5833 37.25 21.8 37.1 20 37.1C18.2 37.1 16.4167 37.25 14.65 37.55C12.8833 37.85 11.1 38 9.3 38Z" fill="#18A0FB"/>
</svg>
