<svg width="45" height="42" viewBox="0 0 45 42" fill="none" xmlns="http://www.w3.org/2000/svg">
<path d="M22.5 38.521C32.8556 38.521 41.25 30.6862 41.25 21.021C41.25 11.3557 32.8556 3.521 22.5 3.521C12.1444 3.521 3.75 11.3557 3.75 21.021C3.75 30.6862 12.1444 38.521 22.5 38.521Z" fill="#18A0FB"/>
<path d="M22.5 12.1468C18.6188 12.1468 15.4688 15.0868 15.4688 18.7093C15.4688 22.2618 18.45 25.1493 22.4063 25.2543H22.7438C24.5639 25.1984 26.2894 24.4844 27.5559 23.2632C28.8225 22.0419 29.5308 20.4089 29.5313 18.7093C29.5313 15.0868 26.3813 12.1468 22.5 12.1468ZM35.2106 33.8765C31.7503 36.8617 27.2102 38.5178 22.4981 38.514C17.5856 38.514 13.1231 36.7465 9.78564 33.8765C10.2356 32.284 11.4544 30.8315 13.2356 29.7115C18.3544 26.5265 26.6794 26.5265 31.7606 29.7115C33.5606 30.8315 34.7606 32.284 35.2106 33.8765Z" fill="white"/>
</svg>
